<?xml version="1.0" encoding="utf-8"?>
<!-- Generator: Adobe Illustrator 17.1.0, SVG Export Plug-In . SVG Version: 6.00 Build 0)  -->
<!DOCTYPE svg PUBLIC "-//W3C//DTD SVG 1.1//EN" "http://www.w3.org/Graphics/SVG/1.1/DTD/svg11.dtd">
<svg version="1.1" id="Layer_1" xmlns="http://www.w3.org/2000/svg" xmlns:xlink="http://www.w3.org/1999/xlink" x="0px" y="0px"
	 viewBox="0 0 76.667 115.012" enable-background="new 0 0 76.667 115.012" xml:space="preserve">
<path fill-rule="evenodd" clip-rule="evenodd" fill="#AECB4D" d="M14.242,10.274L3.355,1.353C2.96,1.008,2.367,0.905,1.851,1.092
	C1.336,1.278,1,2.157,1,2.644v18.723c0,0.487,0.336,1.366,0.851,1.551c0.171,0.063,0.35,0.092,0.527,0.092
	c0.359,0,0.712-0.122,0.976-0.351l10.887-8.922c0.257-0.224,0.754-1.415,0.754-1.731C14.995,11.689,14.499,10.498,14.242,10.274z"/>
<path fill-rule="evenodd" clip-rule="evenodd" fill="#AECB4D" d="M21.998,1.013c1.657,0,3,1.343,3,3v16c0,1.657-1.343,3-3,3
	s-3-1.343-3-3v-16C18.998,2.356,20.341,1.013,21.998,1.013z"/>
<path fill-rule="evenodd" clip-rule="evenodd" fill="#AECB4D" d="M11.756,55.272l10.887-8.921c0.395-0.345,0.988-0.448,1.503-0.261
	c0.515,0.186,0.851,1.065,0.851,1.552v18.723c0,0.487-0.336,1.366-0.851,1.551c-0.171,0.063-0.35,0.091-0.527,0.091
	c-0.359,0-0.712-0.122-0.976-0.351l-10.887-8.922c-0.257-0.224-0.754-1.415-0.754-1.731C11.002,56.687,11.499,55.496,11.756,55.272z
	"/>
<path fill-rule="evenodd" clip-rule="evenodd" fill="#AECB4D" d="M4,46.012c1.657,0,3,1.343,3,3v16c0,1.657-1.343,3-3,3
	s-3-1.343-3-3v-16C1,47.355,2.343,46.012,4,46.012z"/>
<path opacity="0.3" fill-rule="evenodd" clip-rule="evenodd" fill="#72A84D" d="M71.877,22.005v-7c1.149,0.089,1.918,1.51,1.918,4
	C73.795,21.51,71.877,22.005,71.877,22.005z M62.174,1.005c-3.225,0-6.51,1.848-8.157,4.124c-2.485,3.433-2.297,8.872-2.297,8.872
	l0.966,0.019c0,0-0.232-4.012,2.147-7.242c2.833-3.846,6.143-3.79,7.401-3.79c1.259,0,4.871,0.537,7.236,3.737
	c2.364,3.201,2.402,7.291,2.402,7.291l0.96-0.027c0,0-0.083-5.497-2.552-8.899C68.644,2.836,65.379,1.005,62.174,1.005
	 M52.695,15.005v7c0,0-1.918-0.472-1.918-3C50.777,16.491,50.997,15.005,52.695,15.005z M54.613,14.005c0.33,0,0.914,0.547,0.959,1
	v7c0.045,0.453-0.361,1-0.959,1c0,0-0.959-0.34-0.959-1v-7C53.654,14.002,54.283,14.005,54.613,14.005z M69.959,14.005
	c0.629,0.019,1.036,0.232,0.959,1v7c-0.037,0.376-0.18,1-0.959,1s-0.955-0.531-0.959-1c0,0,0.034-6.732,0-7
	C69.032,14.455,69.327,13.986,69.959,14.005z"/>
<path fill-rule="evenodd" clip-rule="evenodd" fill="#FFFFFF" d="M71.877,67.012v-7c1.149,0.089,1.918,1.509,1.918,4
	C73.795,66.516,71.877,67.012,71.877,67.012z M62.174,46.012c-3.225,0-6.51,1.848-8.157,4.124c-2.485,3.433-2.297,8.872-2.297,8.872
	l0.966,0.019c0,0-0.232-4.012,2.147-7.242c2.833-3.846,6.142-3.791,7.401-3.791c1.259,0,4.871,0.537,7.236,3.737
	c2.364,3.201,2.402,7.291,2.402,7.291l0.96-0.027c0,0-0.083-5.497-2.552-8.899C68.644,47.843,65.379,46.012,62.174,46.012
	 M52.695,60.012v7c0,0-1.918-0.472-1.918-3C50.777,61.498,50.997,60.012,52.695,60.012z M54.613,59.012c0.33,0,0.914,0.547,0.959,1
	v7c0.045,0.453-0.361,1-0.959,1c0,0-0.959-0.34-0.959-1v-7C53.654,59.009,54.283,59.012,54.613,59.012z M69.959,59.012
	c0.629,0.019,1.036,0.232,0.959,1v7c-0.037,0.376-0.18,1-0.959,1c-0.779,0-0.955-0.531-0.959-1c0,0,0.034-6.732,0-7
	C69.032,59.461,69.327,58.992,69.959,59.012z"/>
<path fill-rule="evenodd" clip-rule="evenodd" fill="#FFFFFF" d="M62.286,114.012c-6.619,0-11.984-5.373-11.984-12
	c0-6.627,5.366-12,11.984-12s11.984,5.373,11.984,12C74.27,108.639,68.905,114.012,62.286,114.012z M62.302,112.012
	c2.396,0,4.594-0.845,6.317-2.251l-14.064-14.07c-1.407,1.723-2.253,3.922-2.253,6.32C52.302,107.535,56.779,112.012,62.302,112.012
	z M62.302,92.012c-2.405,0-4.61,0.85-6.335,2.264l14.068,14.074c1.416-1.725,2.267-3.932,2.267-6.338
	C72.302,96.489,67.824,92.012,62.302,92.012z"/>
<path fill-rule="evenodd" clip-rule="evenodd" fill="#99C049" d="M21.318,97.605l-2.374-2.708l1.694-1.687l2.374,2.708
	L21.318,97.605z M12.849,106.039l-2.374-2.708l7.622-7.591l2.374,2.707L12.849,106.039z M8.781,105.019l0.847-0.843l2.374,2.708
	l-0.847,0.843l-4.574,2.02L8.781,105.019z M16.863,94.675c-0.363-0.561-0.965-0.928-1.645-0.928H6.177l-0.541,0.587v3.119H2.762
	l-0.603,0.654v11.99c0,1.204,0.899,2.18,2.009,2.18h11.05c1.11,0,2.009-0.976,2.009-2.18v-4.151l1.159-1.853v6.949
	c0,1.365-1.038,2.471-2.318,2.471H3.318c-1.28,0-2.318-1.106-2.318-2.471V97.453l4.636-4.941h10.432c0.818,0,1.538,0.452,1.95,1.134
	C17.539,94.177,17.251,94.28,16.863,94.675z"/>
</svg>
